<?xml version="1.0" encoding="UTF-8" standalone="no"?>
<!-- Created with Inkscape (http://www.inkscape.org/) -->

<svg
   xmlns:dc="http://purl.org/dc/elements/1.1/"
   xmlns:cc="http://creativecommons.org/ns#"
   xmlns:rdf="http://www.w3.org/1999/02/22-rdf-syntax-ns#"
   xmlns:svg="http://www.w3.org/2000/svg"
   xmlns="http://www.w3.org/2000/svg"
   xmlns:sodipodi="http://sodipodi.sourceforge.net/DTD/sodipodi-0.dtd"
   xmlns:inkscape="http://www.inkscape.org/namespaces/inkscape"
   width="1024"
   height="1024"
   id="svg2"
   version="1.1"
   inkscape:version="0.48.3.1 r9886"
   sodipodi:docname="Nouveau document 1">
  <defs
     id="defs4" />
  <sodipodi:namedview
     id="base"
     pagecolor="#ffffff"
     bordercolor="#666666"
     borderopacity="1.0"
     inkscape:pageopacity="0.0"
     inkscape:pageshadow="2"
     inkscape:zoom="0.24748737"
     inkscape:cx="-397.69992"
     inkscape:cy="65.081649"
     inkscape:document-units="px"
     inkscape:current-layer="layer1"
     showgrid="false"
     inkscape:showpageshadow="true"
     inkscape:window-width="1273"
     inkscape:window-height="953"
     inkscape:window-x="180"
     inkscape:window-y="24"
     inkscape:window-maximized="0" />
  <metadata
     id="metadata7">
    <rdf:RDF>
      <cc:Work
         rdf:about="">
        <dc:format>image/svg+xml</dc:format>
        <dc:type
           rdf:resource="http://purl.org/dc/dcmitype/StillImage" />
        <dc:title></dc:title>
      </cc:Work>
    </rdf:RDF>
  </metadata>
  <g
     inkscape:label="Calque 1"
     inkscape:groupmode="layer"
     id="layer1"
     transform="translate(0,-28.362183)">
    <rect
       style="fill:none;stroke:#646464;stroke-width:32;stroke-linecap:square;stroke-linejoin:round;stroke-miterlimit:4;stroke-opacity:1;stroke-dasharray:none"
       id="rect2985"
       width="1031.4286"
       height="1034.2858"
       x="-2.8571429"
       y="-1.7142857"
       transform="translate(0,28.362183)"
       ry="80.81221" />
    <path
       inkscape:connector-curvature="0"
       id="path4247"
       d="m 346.44324,645.20306 c -15.12013,-7.82121 -28.36681,-26.70288 -32.67876,-46.57984 -1.71539,-7.90768 -3.854,-33.7273 -4.7522,-57.37703 -0.89828,-23.64966 -2.72118,-42.9994 -4.05085,-42.9994 -1.32967,0 -7.59009,2.72221 -13.91189,6.04935 -16.16188,8.5058 -52.77127,8.51626 -69.17265,0.0193 -11.92199,-6.17558 -14.66983,-10.27325 -14.66983,-21.87585 0,-7.1131 -0.0928,-7.08116 -11.603,3.99962 -20.16208,19.40973 -30.83687,21.71468 -49.61105,10.71231 C 119.19153,481.44488 93.438172,426.67981 70.709165,337.0588 50.122004,255.88331 49.350302,205.08408 68.113668,166.19916 c 8.917001,-18.47941 29.245477,-37.49831 48.285292,-45.1746 14.02688,-5.65523 20.01527,-6.32496 55.31647,-6.18645 33.61353,0.13187 43.34686,1.19525 64.50629,7.0471 24.59709,6.80261 25.04576,6.82692 34.68811,1.88012 22.86416,-11.73002 56.0843,-15.85184 86.86139,-10.77732 8.82626,1.45529 20.05422,0.58795 36.85673,-2.84698 62.52204,-12.78152 118.55869,-0.20261 156.79403,35.19657 20.66303,19.13034 24.45063,26.49711 26.31798,51.18847 4.13505,54.67409 -26.21796,153.38521 -66.61985,216.65521 -7.36295,11.53053 -8.64464,15.38859 -6.12186,18.42835 3.89837,4.69715 20.68643,4.95444 46.38236,0.71085 17.10686,-2.82518 19.51138,-2.649 24.41443,1.7882 2.9913,2.7071 5.43874,7.1459 5.43874,9.86405 0,8.51872 -16.11981,23.77238 -34.88453,33.01027 -16.10761,7.9297 -21.06879,8.99166 -46.38597,9.92878 -17.77174,0.65787 -28.76431,2.20433 -29.46169,4.14473 -0.61182,1.70243 -4.28548,25.82362 -8.16363,53.60262 -4.23877,30.36163 -9.21294,55.40754 -12.4706,62.79283 -11.54986,26.18324 -35.13952,40.19084 -72.02773,42.77011 -16.29363,1.13928 -20.92189,0.39948 -31.39639,-5.01875 z m 49.29404,-17.32904 c 15.25945,-5.38378 28.76818,-15.81412 34.27598,-26.46509 2.41484,-4.66983 6.16959,-18.42754 8.3438,-30.57269 2.1743,-12.14521 5.15133,-28.83925 6.6156,-37.09786 2.76332,-15.58532 10.6102,-77.69494 10.65174,-84.3114 0.0138,-2.07503 4.49575,-7.99044 9.96159,-13.14537 l 9.93775,-9.37255 -5.38775,-7.33053 c -10.38488,-14.12954 -43.96829,-81.22988 -50.11621,-100.13299 -16.02693,-49.2782 -1.68443,-76.75826 41.77112,-80.03347 12.30073,-0.92709 15.69824,-2.15962 15.69824,-5.69482 0,-9.08078 -20.97479,-40.38006 -39.58676,-59.07294 -30.56786,-30.70058 -63.9354,-44.96401 -105.18777,-44.96401 -48.60877,0 -82.47822,22.02766 -99.6913,64.83627 -7.56023,18.80208 -15.00583,53.03928 -12.20691,56.13096 1.09884,1.21375 9.85038,-0.4438 19.44792,-3.68346 20.92946,-7.06484 42.50084,-6.31398 53.73731,1.87036 11.84433,8.62717 18.71398,25.51898 22.51826,55.37055 4.38514,34.40972 1.29183,55.25007 -13.83716,93.22448 -6.01789,15.10526 -10.2324,28.61168 -9.36559,30.01422 0.86682,1.40255 3.86638,2.55009 6.66574,2.55009 8.22374,0 21.56734,13.19525 24.35853,24.08782 1.41481,5.52132 2.61221,14.9529 2.66097,20.95919 0.049,6.00626 1.37147,17.53809 2.93945,25.62622 1.5679,8.0882 2.85079,30.37989 2.85079,49.53714 0,40.96696 6.14973,66.74911 18.1781,76.21065 8.70775,6.84953 27.73133,7.46964 44.76656,1.45923 z M 276.05788,489.93626 c 10.92885,-3.03525 25.08619,-13.59762 29.64634,-22.1184 3.58155,-6.69211 0.94405,-15.17188 -5.84975,-18.80783 -4.48215,-2.39878 -7.38178,-0.54701 -19.45393,12.42377 -11.7523,12.62702 -16.90698,15.99897 -30.03945,19.65014 -8.71903,2.42408 -15.85287,5.34448 -15.85287,6.48979 0,5.10546 26.29072,6.60036 41.54966,2.36253 z M 177.39,478.43986 c 9.67459,-8.42342 46.19772,-50.04385 46.19772,-52.64527 0,-1.16093 -3.2445,-6.3645 -7.21004,-11.56359 -16.20066,-21.24022 -17.41492,-29.19312 -16.00432,-104.82316 1.08706,-58.28713 2.17834,-72.42931 7.11476,-92.20794 6.14387,-24.6165 14.96034,-44.69449 26.20128,-59.66946 3.71845,-4.95355 6.12263,-10.66924 5.34286,-12.7015 -2.66709,-6.9503 -60.62073,-16.32061 -83.69757,-13.53285 -36.49164,4.40842 -59.652063,19.80417 -72.474024,48.17671 -6.678541,14.77837 -7.883589,21.35486 -8.890858,48.52035 -1.247051,33.63409 1.101432,49.70767 15.972403,109.31875 21.518779,86.25974 52.349629,147.32005 74.360399,147.2707 3.32628,-0.008 9.2156,-2.77166 13.08739,-6.14274 z m 57.04219,-12.14443 c 18.93999,-5.10559 28.96831,-10.28448 31.20589,-16.11554 2.23219,-5.81708 2.54609,-5.58169 -12.98453,-9.73553 l -13.09969,-3.50359 -12.11129,13.5897 c -6.66118,7.47445 -13.46786,15.92608 -15.12598,18.78151 -2.6086,4.49238 -2.32832,4.9101 2.08073,3.10116 2.80236,-1.14977 11.81801,-3.90275 20.03487,-6.11771 z m 297.43231,-3.22829 c 18.15668,-6.63936 17.91862,-11.75503 -0.4467,-9.59653 -10.27127,1.20717 -19.61062,0.34688 -30.45355,-2.80526 -18.25644,-5.30731 -25.53021,-3.83574 -27.91005,5.64642 -2.92328,11.64731 4.82426,14.86408 30.37108,12.61005 9.00945,-0.79491 21.80702,-3.42953 28.43922,-5.85468 z m -245.80419,-69.93003 12.50663,-30.03137 0.0499,-35.49158 c 0.0611,-43.49567 -4.67015,-59.68587 -19.21665,-65.76376 -11.22855,-4.69162 -32.069,-1.35473 -48.67413,7.79348 l -11.23321,6.18868 -2.00134,43.6366 c -1.10074,24.00012 -1.30534,47.8794 -0.45461,53.06506 3.33636,20.3369 18.10517,39.59383 36.58247,47.69953 16.81257,7.37542 18.76412,5.74535 32.44122,-27.09664 z M 266.84186,284.23034 c -3.49202,-1.74097 -6.78795,-5.44442 -7.32442,-8.22994 -1.86048,-9.66104 12.75052,-13.11107 23.53514,-5.55726 11.69925,8.19452 -2.76074,20.4927 -16.21072,13.7872 z m 247.11535,83.65314 c 17.40959,-34.8234 34.82632,-83.31767 41.24488,-114.84052 5.22607,-25.66667 6.04395,-60.88299 1.67937,-72.31318 -7.19629,-18.84589 -43.10562,-44.24363 -74.29088,-52.54384 -16.36303,-4.35519 -69.42033,-5.39259 -71.88453,-1.4056 -0.87025,1.40819 4.27859,6.57857 11.44193,11.48971 29.99474,20.5642 52.66022,47.41881 68.76705,81.47665 l 7.66869,16.21541 -0.50388,80.6351 c -0.27719,44.34932 -0.11954,80.63505 0.35037,80.63505 0.46982,0 7.45703,-13.20694 15.527,-29.34878 z m -33.16879,10.03387 c 1.14107,-5.14323 0.803,-22.97969 -0.75123,-39.63649 -1.96823,-21.09499 -1.94914,-37.25023 0.0627,-53.23741 2.61006,-20.73901 2.42602,-23.29761 -1.90881,-26.5344 -2.78017,-2.07592 -8.09783,-2.93692 -12.64646,-2.04755 -4.31695,0.84402 -10.24712,1.53454 -13.17796,1.53454 -2.93103,0 -8.92019,3.59113 -13.30946,7.98041 -15.43327,15.43328 -9.47231,41.54528 24.24045,106.18574 4.94724,9.48575 10.43966,16.76517 12.20554,16.17662 1.76578,-0.5886 4.14407,-5.27828 5.28505,-10.42146 z M 444.72765,275.74186 c -5.05889,-6.09568 1.2994,-12.28554 12.6198,-12.28554 7.05962,0 9.22119,1.15195 9.22119,4.91419 0,10.65697 -14.93179,15.69646 -21.84099,7.37135 z"
       style="fill:#646464;fill-opacity:1" />
    <rect
       style="fill:#646464;fill-opacity:1;fill-rule:nonzero;stroke:#646464;stroke-width:18.45530319;stroke-linecap:round;stroke-linejoin:round;stroke-miterlimit:4;stroke-opacity:1;stroke-dasharray:none;stroke-dashoffset:0"
       id="rect4408"
       width="327.57825"
       height="22.857143"
       x="632.42175"
       y="289.21948" />
    <rect
       style="fill:#646464;fill-opacity:1;fill-rule:nonzero;stroke:#646464;stroke-width:18.45530319;stroke-linecap:round;stroke-linejoin:round;stroke-miterlimit:4;stroke-opacity:1;stroke-dasharray:none;stroke-dashoffset:0"
       id="rect4408-7"
       width="327.57825"
       height="22.857143"
       x="632.42175"
       y="387.40988" />
    <rect
       style="fill:#646464;fill-opacity:1;fill-rule:nonzero;stroke:#646464;stroke-width:18.45530319;stroke-linecap:round;stroke-linejoin:round;stroke-miterlimit:4;stroke-opacity:1;stroke-dasharray:none;stroke-dashoffset:0"
       id="rect4408-9"
       width="327.57825"
       height="22.857143"
       x="632.42175"
       y="485.60031" />
    <rect
       style="fill:#646464;fill-opacity:1;fill-rule:nonzero;stroke:#646464;stroke-width:30.48757362;stroke-linecap:round;stroke-linejoin:round;stroke-miterlimit:4;stroke-opacity:1;stroke-dasharray:none;stroke-dashoffset:0"
       id="rect4408-1"
       width="893.96075"
       height="22.857143"
       x="71.428581"
       y="703.50513" />
    <rect
       style="fill:#646464;fill-opacity:1;fill-rule:nonzero;stroke:#646464;stroke-width:30.48757362;stroke-linecap:round;stroke-linejoin:round;stroke-miterlimit:4;stroke-opacity:1;stroke-dasharray:none;stroke-dashoffset:0"
       id="rect4408-7-5"
       width="893.96075"
       height="22.857143"
       x="71.428581"
       y="824.64789" />
    <rect
       style="fill:#646464;fill-opacity:1;fill-rule:nonzero;stroke:#646464;stroke-width:30.48757362;stroke-linecap:round;stroke-linejoin:round;stroke-miterlimit:4;stroke-opacity:1;stroke-dasharray:none;stroke-dashoffset:0"
       id="rect4408-9-7"
       width="893.96075"
       height="22.857143"
       x="71.428581"
       y="945.79071" />
    <rect
       style="fill:#646464;fill-opacity:1;fill-rule:nonzero;stroke:#646464;stroke-width:18.45530319;stroke-linecap:round;stroke-linejoin:round;stroke-miterlimit:4;stroke-opacity:1;stroke-dasharray:none;stroke-dashoffset:0"
       id="rect4408-9-1"
       width="327.57825"
       height="22.857143"
       x="632.42175"
       y="583.79077" />
    <flowRoot
       xml:space="preserve"
       id="flowRoot4487"
       style="font-size:40px;font-style:normal;font-weight:bold;text-align:center;line-height:125%;letter-spacing:0px;word-spacing:0px;text-anchor:middle;fill:#646464;fill-opacity:1;stroke:none;font-family:Sans;-inkscape-font-specification:Sans Bold"
       transform="matrix(2.1762477,0,0,3.9526272,-957.20316,-260.9772)"><flowRegion
         id="flowRegion4489"><rect
           id="rect4491"
           width="334.28571"
           height="127.14286"
           x="637.14288"
           y="86.85714"
           style="font-weight:bold;fill:#646464;fill-opacity:1;-inkscape-font-specification:Sans Bold" /></flowRegion><flowPara
         id="flowPara4493">PGMAG</flowPara></flowRoot>  </g>
</svg>
